<?xml version="1.0" standalone="no"?>
<!DOCTYPE svg PUBLIC "-//W3C//DTD SVG 20010904//EN"
 "http://www.w3.org/TR/2001/REC-SVG-20010904/DTD/svg10.dtd">
<svg version="1.0" xmlns="http://www.w3.org/2000/svg"
 width="289.000000pt" height="151.000000pt" viewBox="0 0 289.000000 151.000000"
 preserveAspectRatio="xMidYMid meet">

<g transform="translate(0.000000,151.000000) scale(0.100000,-0.100000)"
fill="#000000" stroke="none">
<path d="M74 1436 c-12 -31 0 -51 31 -51 27 0 30 3 30 30 0 25 -4 30 -28 33
-17 2 -29 -2 -33 -12z m46 -21 c0 -16 -6 -25 -15 -25 -9 0 -15 9 -15 25 0 16
6 25 15 25 9 0 15 -9 15 -25z"/>
<path d="M168 1445 c-2 -3 -3 -18 0 -35 6 -43 32 -39 32 5 0 32 -15 46 -32 30z"/>
<path d="M235 1440 c-4 -7 2 -9 19 -4 32 8 34 -7 4 -21 -38 -17 -34 -35 9 -34
37 1 37 2 8 9 l-30 7 28 11 c16 7 27 18 25 25 -6 16 -54 22 -63 7z"/>
<path d="M325 1440 c-4 -7 2 -9 19 -4 15 4 26 2 26 -4 0 -6 -8 -13 -17 -15
-17 -4 -17 -5 0 -6 9 0 17 -6 17 -12 0 -7 -10 -9 -27 -4 -21 5 -25 4 -17 -5 7
-6 22 -10 35 -8 19 2 24 9 24 33 0 25 -4 31 -27 33 -14 2 -29 -2 -33 -8z"/>
<path d="M410 1425 c0 -18 5 -25 19 -25 11 0 22 -6 24 -12 9 -22 25 10 19 38
-5 29 -22 32 -22 4 0 -11 -4 -20 -10 -20 -5 0 -10 9 -10 20 0 11 -4 20 -10 20
-5 0 -10 -11 -10 -25z"/>
<path d="M490 1435 c0 -9 9 -15 25 -15 16 0 25 -6 25 -16 0 -13 -6 -15 -27 -9
-21 5 -25 4 -17 -5 7 -6 22 -10 35 -8 33 4 32 40 -1 49 -25 6 -25 6 5 11 28 5
27 5 -7 7 -28 1 -38 -3 -38 -14z"/>
<path d="M574 1436 c-12 -31 0 -51 31 -51 36 0 42 28 8 33 -13 2 -23 8 -23 14
0 6 10 8 26 4 17 -5 23 -3 19 4 -9 15 -55 12 -61 -4z m46 -36 c0 -5 -7 -10
-15 -10 -8 0 -15 5 -15 10 0 6 7 10 15 10 8 0 15 -4 15 -10z"/>
<path d="M674 1441 c26 -5 28 -7 13 -20 -21 -17 -22 -41 -2 -41 8 0 15 9 15
19 0 11 5 23 10 26 22 13 8 25 -27 24 -36 -1 -36 -2 -9 -8z"/>
<path d="M737 1443 c-3 -4 -4 -19 -3 -33 1 -21 6 -25 31 -25 27 0 30 3 30 30
0 25 -4 31 -27 33 -14 2 -28 0 -31 -5z m43 -13 c0 -5 -7 -10 -15 -10 -8 0 -15
5 -15 10 0 6 7 10 15 10 8 0 15 -4 15 -10z m0 -30 c0 -5 -7 -10 -15 -10 -8 0
-15 5 -15 10 0 6 7 10 15 10 8 0 15 -4 15 -10z"/>
<path d="M815 1441 c-9 -16 3 -31 26 -31 10 0 19 -5 19 -11 0 -7 -10 -9 -27
-4 -21 5 -25 4 -17 -5 7 -6 22 -10 35 -8 19 2 24 9 24 33 0 25 -4 31 -27 33
-14 2 -29 -2 -33 -7z m45 -11 c0 -5 -7 -10 -15 -10 -8 0 -15 5 -15 10 0 6 7
10 15 10 8 0 15 -4 15 -10z"/>
<path d="M77 1354 c-11 -11 -8 -64 3 -64 6 0 10 5 10 10 0 6 7 10 15 10 8 0
15 -4 15 -10 0 -5 5 -10 11 -10 6 0 9 14 7 33 -2 26 -8 33 -28 35 -14 2 -29 0
-33 -4z m43 -19 c0 -8 -7 -15 -15 -15 -8 0 -15 7 -15 15 0 8 7 15 15 15 8 0
15 -7 15 -15z"/>
<path d="M150 1325 c0 -35 1 -36 33 -33 28 3 32 6 32 33 0 27 -4 30 -32 33
-32 3 -33 2 -33 -33z m50 15 c0 -5 -7 -10 -15 -10 -8 0 -15 5 -15 10 0 6 7 10
15 10 8 0 15 -4 15 -10z m0 -30 c0 -5 -7 -10 -15 -10 -8 0 -15 5 -15 10 0 6 7
10 15 10 8 0 15 -4 15 -10z"/>
<path d="M234 1346 c-16 -40 31 -76 60 -46 8 9 4 10 -16 5 -25 -7 -28 -5 -28
20 0 24 3 26 26 21 17 -5 23 -3 19 4 -9 15 -55 12 -61 -4z"/>
<path d="M310 1325 c0 -35 1 -36 33 -33 28 3 32 6 32 33 0 27 -4 30 -32 33
-32 3 -33 2 -33 -33z m50 0 c0 -16 -6 -25 -15 -25 -9 0 -15 9 -15 25 0 16 6
25 15 25 9 0 15 -9 15 -25z"/>
<path d="M390 1325 c0 -34 1 -35 38 -34 30 2 32 3 10 6 -34 5 -37 20 -5 26
l22 4 -22 2 c-32 2 -29 19 5 24 22 3 20 4 -10 6 -37 1 -38 0 -38 -34z"/>
<path d="M470 1325 c0 -19 5 -35 10 -35 6 0 10 6 10 14 0 8 10 17 23 19 l22 4
-22 2 c-32 2 -29 19 5 24 22 3 20 4 -10 6 -37 1 -38 0 -38 -34z"/>
<path d="M554 1346 c-3 -8 -4 -23 -2 -33 5 -25 61 -25 66 0 3 12 -3 17 -20 16
-13 0 -17 -3 -10 -6 17 -7 15 -23 -3 -23 -9 0 -15 10 -15 26 0 23 3 25 26 20
17 -5 23 -3 19 4 -9 15 -55 12 -61 -4z"/>
<path d="M630 1325 c0 -19 5 -35 10 -35 6 0 10 7 10 15 0 8 7 15 15 15 8 0 15
-7 15 -15 0 -8 5 -15 10 -15 6 0 10 16 10 35 0 19 -4 35 -10 35 -5 0 -10 -7
-10 -15 0 -8 -7 -15 -15 -15 -8 0 -15 7 -15 15 0 8 -4 15 -10 15 -5 0 -10 -16
-10 -35z"/>
<path d="M740 1325 c0 -19 5 -35 10 -35 6 0 10 16 10 35 0 19 -4 35 -10 35 -5
0 -10 -16 -10 -35z"/>
<path d="M830 1330 c0 -16 -4 -30 -10 -30 -5 0 -10 5 -10 10 0 6 -5 10 -11 10
-6 0 -9 -6 -6 -12 2 -7 15 -13 28 -13 20 0 25 6 27 33 2 18 -1 32 -7 32 -6 0
-11 -13 -11 -30z"/>
<path d="M870 1325 c0 -19 5 -35 10 -35 6 0 10 7 10 17 0 14 2 14 20 -2 11
-10 22 -16 25 -13 3 3 -1 11 -10 18 -14 12 -14 15 1 31 21 23 7 25 -18 2 -17
-15 -18 -15 -18 0 0 10 -4 17 -10 17 -5 0 -10 -16 -10 -35z"/>
<path d="M960 1325 c0 -33 2 -35 33 -34 23 1 26 3 10 6 -18 3 -23 11 -23 34 0
16 -4 29 -10 29 -5 0 -10 -16 -10 -35z"/>
<path d="M1030 1325 c0 -19 5 -35 10 -35 6 0 10 8 10 18 0 10 7 19 15 19 8 0
15 -9 15 -19 0 -10 5 -18 10 -18 6 0 10 16 10 35 0 36 -8 43 -27 24 -8 -8 -13
-8 -17 0 -14 22 -26 10 -26 -24z"/>
<path d="M1110 1325 c0 -19 5 -35 10 -35 6 0 10 10 10 23 l1 22 18 -22 c26
-31 31 -29 31 12 0 19 -4 35 -10 35 -5 0 -10 -7 -10 -17 0 -15 -1 -15 -18 0
-27 24 -32 21 -32 -18z"/>
<path d="M1194 1346 c-12 -31 0 -51 31 -51 27 0 30 3 30 30 0 25 -4 30 -28 33
-17 2 -29 -2 -33 -12z m46 -21 c0 -16 -6 -25 -15 -25 -9 0 -15 9 -15 25 0 16
6 25 15 25 9 0 15 -9 15 -25z"/>
<path d="M1280 1326 c0 -20 5 -36 10 -36 6 0 10 4 10 9 0 5 10 11 23 13 14 2
22 10 22 23 0 15 -8 21 -32 23 -32 3 -33 2 -33 -32z m50 9 c0 -8 -7 -15 -15
-15 -8 0 -15 7 -15 15 0 8 7 15 15 15 8 0 15 -7 15 -15z"/>
<path d="M1364 1346 c-12 -31 0 -51 32 -52 28 -1 31 2 30 30 -1 26 -5 32 -29
34 -17 2 -29 -2 -33 -12z m46 -11 c0 -8 -5 -15 -11 -15 -5 0 -7 -4 -4 -10 3
-5 1 -10 -4 -10 -6 0 -11 11 -11 25 0 16 6 25 15 25 8 0 15 -7 15 -15z"/>
<path d="M1440 1326 c0 -35 14 -49 23 -23 4 10 7 10 18 0 20 -20 25 -16 24 20
0 29 -3 32 -32 35 -32 3 -33 2 -33 -32z m50 9 c0 -8 -7 -15 -15 -15 -8 0 -15
7 -15 15 0 8 7 15 15 15 8 0 15 -7 15 -15z"/>
<path d="M1525 1350 c-9 -15 4 -30 26 -30 10 0 19 -5 19 -11 0 -7 -10 -9 -27
-4 -21 5 -25 4 -17 -5 16 -16 59 -8 59 10 0 8 -10 16 -22 18 -13 2 -23 8 -23
14 0 6 10 8 26 4 17 -5 23 -3 19 4 -8 13 -52 13 -60 0z"/>
<path d="M1618 1353 c6 -2 12 -18 12 -34 0 -16 5 -29 10 -29 6 0 10 13 10 29
0 16 6 32 13 34 6 3 -4 5 -23 5 -19 0 -29 -2 -22 -5z"/>
<path d="M1682 1328 c3 -29 6 -33 33 -33 27 0 30 4 33 33 2 18 -1 32 -7 32 -6
0 -11 -13 -11 -30 0 -20 -5 -30 -15 -30 -10 0 -15 10 -15 30 0 17 -5 30 -11
30 -6 0 -9 -14 -7 -32z"/>
<path d="M1760 1342 c0 -11 8 -26 18 -36 18 -15 20 -15 35 2 18 20 23 52 8 52
-5 0 -11 -9 -13 -20 -2 -12 -7 -21 -13 -21 -5 0 -11 9 -13 21 -4 25 -22 27
-22 2z"/>
<path d="M1840 1325 c0 -36 8 -43 27 -24 8 8 13 8 17 0 14 -22 26 -10 26 24 0
19 -4 35 -10 35 -5 0 -10 -8 -10 -18 0 -10 -7 -19 -15 -19 -8 0 -15 9 -15 19
0 10 -4 18 -10 18 -5 0 -10 -16 -10 -35z"/>
<path d="M1920 1351 c0 -6 5 -13 10 -16 8 -5 7 -11 -1 -21 -6 -8 -9 -18 -5
-21 4 -4 11 -1 17 7 8 13 10 13 18 0 6 -8 13 -11 17 -7 4 3 2 13 -4 20 -9 10
-9 16 0 25 6 6 8 15 4 19 -4 4 -12 1 -17 -7 -8 -11 -12 -12 -16 -2 -6 14 -23
16 -23 3z"/>
<path d="M2000 1352 c0 -12 24 -62 30 -62 6 0 30 50 30 62 0 4 -4 8 -10 8 -5
0 -10 -7 -10 -15 0 -8 -4 -15 -10 -15 -5 0 -10 7 -10 15 0 8 -4 15 -10 15 -5
0 -10 -4 -10 -8z"/>
<path d="M2080 1351 c0 -5 10 -7 23 -4 l22 6 -22 -25 c-30 -32 -29 -38 7 -38
17 0 30 4 30 9 0 5 -10 7 -22 4 l-23 -6 23 25 c29 32 28 38 -8 38 -16 0 -30
-4 -30 -9z"/>
<path d="M150 1234 c0 -34 1 -35 33 -32 24 2 32 8 32 23 0 13 -8 21 -22 23
-13 2 -23 8 -23 13 0 5 -4 9 -10 9 -5 0 -10 -16 -10 -36z m50 -9 c0 -8 -7 -15
-15 -15 -8 0 -15 7 -15 15 0 8 7 15 15 15 8 0 15 -7 15 -15z"/>
<path d="M360 1261 c0 -5 -10 -11 -22 -13 -15 -2 -23 -10 -23 -23 0 -15 8 -21
33 -23 31 -3 32 -2 32 32 0 20 -4 36 -10 36 -5 0 -10 -4 -10 -9z m0 -36 c0 -8
-7 -15 -15 -15 -8 0 -15 7 -15 15 0 8 7 15 15 15 8 0 15 -7 15 -15z"/>
<path d="M487 1250 c-9 -11 -12 -20 -7 -20 6 0 10 -7 10 -15 0 -8 5 -15 10
-15 6 0 10 7 10 15 0 8 6 15 13 15 8 0 7 4 -3 10 -13 9 -13 11 0 20 13 9 13
10 0 10 -9 0 -23 -9 -33 -20z"/>
<path d="M630 1235 c0 -19 5 -35 10 -35 6 0 10 7 10 15 0 8 7 15 15 15 8 0 15
-7 15 -15 0 -8 5 -15 11 -15 20 0 4 35 -19 38 -12 2 -22 10 -22 18 0 8 -4 14
-10 14 -5 0 -10 -16 -10 -35z"/>
<path d="M740 1260 c0 -5 5 -10 10 -10 6 0 10 5 10 10 0 6 -4 10 -10 10 -5 0
-10 -4 -10 -10z"/>
<path d="M830 1260 c0 -5 5 -10 10 -10 6 0 10 5 10 10 0 6 -4 10 -10 10 -5 0
-10 -4 -10 -10z"/>
<path d="M870 1235 c0 -19 5 -35 10 -35 6 0 10 5 10 12 0 9 3 9 12 0 16 -16
33 -15 19 1 -8 10 -7 17 1 25 7 7 8 12 2 12 -5 0 -15 -5 -22 -12 -9 -9 -12 -7
-12 10 0 12 -4 22 -10 22 -5 0 -10 -16 -10 -35z"/>
<path d="M980 1235 c0 -19 5 -35 10 -35 6 0 10 16 10 35 0 19 -4 35 -10 35 -5
0 -10 -16 -10 -35z"/>
<path d="M1612 1255 c-7 -8 -9 -15 -4 -15 6 0 12 -9 15 -20 3 -11 13 -20 24
-19 10 0 13 3 6 6 -16 6 -17 33 -2 33 6 0 4 7 -5 15 -18 18 -18 18 -34 0z"/>
<path d="M555 1251 c-9 -16 3 -31 28 -32 21 -1 20 -2 -3 -9 -24 -9 -24 -9 5
-7 25 2 30 6 30 27 0 20 -6 26 -27 28 -14 2 -29 -2 -33 -7z m45 -11 c0 -5 -7
-10 -15 -10 -8 0 -15 5 -15 10 0 6 7 10 15 10 8 0 15 -4 15 -10z"/>
<path d="M1280 1231 c0 -17 5 -31 10 -31 6 0 10 4 10 9 0 5 10 11 23 13 35 5
27 32 -10 36 -31 3 -33 1 -33 -27z m50 9 c0 -5 -7 -10 -15 -10 -8 0 -15 5 -15
10 0 6 7 10 15 10 8 0 15 -4 15 -10z"/>
<path d="M1365 1250 c-9 -15 4 -30 26 -30 10 0 19 -4 19 -10 0 -5 5 -10 10
-10 6 0 10 14 10 30 0 27 -3 30 -29 30 -17 0 -33 -4 -36 -10z m45 -10 c0 -5
-7 -10 -15 -10 -8 0 -15 5 -15 10 0 6 7 10 15 10 8 0 15 -4 15 -10z"/>
<path d="M77 1243 c-4 -3 -7 -14 -7 -24 0 -15 7 -18 35 -17 30 1 35 5 35 25 0
19 -5 23 -28 23 -16 0 -32 -3 -35 -7z m41 -15 c-6 -18 -28 -21 -28 -4 0 9 7
16 16 16 9 0 14 -5 12 -12z"/>
<path d="M234 1235 c-3 -8 -3 -19 1 -25 8 -13 52 -13 60 0 4 7 -2 9 -19 4 -20
-5 -26 -2 -26 11 0 13 6 16 26 11 17 -5 23 -3 19 4 -9 15 -55 12 -61 -5z"/>
<path d="M394 1236 c-9 -24 5 -36 39 -35 l32 1 -30 8 -30 8 28 1 c36 1 31 25
-6 29 -17 2 -29 -2 -33 -12z m43 -2 c-3 -3 -12 -4 -19 -1 -8 3 -5 6 6 6 11 1
17 -2 13 -5z"/>
<path d="M1031 1223 l1 -28 8 25 c8 24 8 24 9 3 1 -13 5 -23 10 -23 5 0 12 10
14 23 l4 22 2 -22 c0 -13 6 -23 12 -23 6 0 9 10 7 23 -2 17 -11 23 -35 25 -30
3 -33 1 -32 -25z"/>
<path d="M1110 1226 c0 -14 5 -26 10 -26 6 0 10 9 10 20 0 11 7 20 15 20 8 0
15 -9 15 -20 0 -11 5 -20 11 -20 6 0 9 10 7 23 -2 17 -11 23 -35 25 -30 3 -33
1 -33 -22z"/>
<path d="M1194 1235 c-9 -22 9 -37 37 -33 16 2 24 10 24 23 0 26 -52 35 -61
10z m46 -10 c0 -8 -7 -15 -15 -15 -8 0 -15 7 -15 15 0 8 7 15 15 15 8 0 15 -7
15 -15z"/>
<path d="M1440 1224 c0 -29 4 -30 30 -4 26 26 25 28 -5 28 -20 0 -25 -6 -25
-24z"/>
<path d="M1528 1243 c-12 -23 -1 -38 27 -38 23 0 30 4 30 20 0 14 -8 21 -27
23 -14 2 -28 0 -30 -5z m45 -10 c-7 -2 -19 -2 -25 0 -7 3 -2 5 12 5 14 0 19
-2 13 -5z m-10 -20 c-7 -2 -19 -2 -25 0 -7 3 -2 5 12 5 14 0 19 -2 13 -5z"/>
<path d="M1682 1228 c2 -18 10 -23 36 -25 28 -1 32 2 32 23 0 29 -16 32 -23 4
-3 -11 -10 -20 -16 -20 -6 0 -11 9 -11 20 0 11 -5 20 -11 20 -6 0 -9 -10 -7
-22z"/>
<path d="M1760 1242 c0 -5 8 -16 18 -26 18 -15 20 -15 37 4 10 11 15 23 12 27
-4 4 -14 -2 -21 -13 -14 -18 -15 -18 -21 -1 -7 17 -25 24 -25 9z"/>
<path d="M1840 1225 c0 -27 9 -32 27 -14 8 8 13 8 17 0 12 -19 26 -12 26 14 0
14 -4 25 -10 25 -5 0 -10 -4 -10 -8 0 -5 -7 -9 -15 -9 -8 0 -15 4 -15 9 0 4
-4 8 -10 8 -5 0 -10 -11 -10 -25z"/>
<path d="M1928 1238 c8 -8 9 -15 1 -25 -8 -9 -8 -13 -1 -13 6 0 14 5 18 11 4
8 9 8 17 0 16 -16 32 -14 18 2 -8 10 -7 17 1 25 7 7 8 12 2 12 -5 0 -15 -5
-21 -11 -8 -8 -13 -8 -17 0 -4 6 -12 11 -19 11 -8 0 -8 -3 1 -12z"/>
<path d="M2002 1238 c3 -7 15 -15 29 -17 l24 -4 -25 -8 c-24 -7 -23 -8 5 -6
23 2 31 7 33 25 2 12 -1 22 -7 22 -6 0 -11 -4 -11 -10 0 -5 -7 -10 -15 -10 -8
0 -15 5 -15 10 0 6 -5 10 -11 10 -6 0 -9 -6 -7 -12z"/>
<path d="M2093 1243 c18 -5 18 -6 1 -24 -17 -18 -16 -19 17 -18 19 1 26 3 16
6 -18 5 -18 6 -1 24 17 18 16 19 -17 18 -19 -1 -26 -3 -16 -6z"/>
<path d="M740 1220 c0 -11 5 -20 10 -20 6 0 10 9 10 20 0 11 -4 20 -10 20 -5
0 -10 -9 -10 -20z"/>
<path d="M830 1225 c0 -8 -4 -15 -10 -15 -5 0 -10 5 -10 10 0 6 -5 10 -11 10
-6 0 -9 -6 -6 -12 6 -20 51 -16 55 5 2 9 -1 17 -7 17 -6 0 -11 -7 -11 -15z"/>
<path d="M110 1149 c-7 -11 -9 -23 -6 -26 8 -9 36 17 36 33 0 21 -18 17 -30
-7z"/>
<path d="M321 1157 c-8 -8 -7 -14 1 -25 9 -10 9 -15 -1 -21 -10 -6 -9 -9 2
-14 8 -3 23 1 34 9 17 13 17 15 0 28 -13 10 -14 15 -6 18 9 3 8 6 -3 10 -8 4
-21 1 -27 -5z m39 -37 c0 -5 -4 -10 -10 -10 -5 0 -10 5 -10 10 0 6 5 10 10 10
6 0 10 -4 10 -10z"/>
<path d="M684 1156 c-9 -22 0 -59 14 -62 7 -1 8 0 2 3 -14 7 -12 60 3 66 9 4
9 6 -1 6 -7 1 -15 -5 -18 -13z"/>
<path d="M780 1163 c5 -2 10 -17 10 -33 0 -16 -5 -31 -10 -33 -6 -3 -5 -4 2
-3 8 2 13 17 13 36 0 19 -5 34 -13 36 -7 1 -8 0 -2 -3z"/>
<path d="M1714 1159 c-4 -8 0 -9 15 -4 23 7 28 -4 9 -23 -8 -8 -8 -12 -1 -12
16 0 36 28 28 40 -8 13 -42 13 -51 -1z"/>
<path d="M239 1153 c-2 -4 -2 -40 0 -55 1 -9 4 -8 11 2 9 13 11 13 20 0 10
-16 11 -13 13 32 1 15 -5 22 -21 23 -12 1 -22 0 -23 -2z m31 -23 c0 -5 -4 -10
-10 -10 -5 0 -10 5 -10 10 0 6 5 10 10 10 6 0 10 -4 10 -10z"/>
<path d="M396 1151 c-4 -5 -2 -12 3 -15 5 -4 12 -2 15 3 4 5 2 12 -3 15 -5 4
-12 2 -15 -3z"/>
<path d="M419 1123 l-34 -38 38 34 c34 33 42 41 34 41 -2 0 -19 -17 -38 -37z"/>
<path d="M510 1135 c-6 -15 -8 -31 -5 -36 9 -13 52 -7 52 8 0 6 -4 10 -9 7 -4
-3 -7 5 -5 17 3 32 -21 35 -33 4z m30 5 c0 -5 -4 -10 -10 -10 -5 0 -10 5 -10
10 0 6 5 10 10 10 6 0 10 -4 10 -10z m-5 -30 c3 -5 -1 -10 -9 -10 -9 0 -16 5
-16 10 0 6 4 10 9 10 6 0 13 -4 16 -10z"/>
<path d="M613 1145 c0 -8 4 -12 9 -9 4 3 8 9 8 15 0 5 -4 9 -8 9 -5 0 -9 -7
-9 -15z"/>
<path d="M840 1140 c-13 -13 -13 -17 0 -30 13 -13 17 -13 30 0 13 13 13 17 0
30 -13 13 -17 13 -30 0z"/>
<path d="M931 1148 c0 -9 -9 -19 -18 -21 -16 -4 -16 -5 -1 -6 9 0 19 -9 21
-18 4 -16 5 -16 6 -1 0 9 9 19 19 21 15 4 15 5 0 6 -9 0 -19 9 -21 19 -4 15
-5 15 -6 0z"/>
<path d="M1486 1142 c-15 -18 -15 -20 6 -38 23 -19 23 -19 6 2 -17 19 -17 21
-1 37 10 9 15 17 12 17 -3 0 -13 -8 -23 -18z"/>
<path d="M1663 1143 c16 -16 16 -18 -1 -37 -17 -21 -17 -21 6 -2 21 18 21 20
6 38 -10 10 -20 18 -23 18 -3 0 2 -8 12 -17z"/>
<path d="M1244 1118 l-29 -33 33 29 c30 28 37 36 29 36 -2 0 -16 -15 -33 -32z"/>
<path d="M1320 1140 c0 -5 5 -10 10 -10 6 0 10 5 10 10 0 6 -4 10 -10 10 -5 0
-10 -4 -10 -10z"/>
<path d="M1400 1140 c0 -5 5 -10 10 -10 6 0 10 5 10 10 0 6 -4 10 -10 10 -5 0
-10 -4 -10 -10z"/>
<path d="M1563 1133 c9 -2 23 -2 30 0 6 3 -1 5 -18 5 -16 0 -22 -2 -12 -5z"/>
<path d="M1073 1123 c9 -2 25 -2 35 0 9 3 1 5 -18 5 -19 0 -27 -2 -17 -5z"/>
<path d="M436 1111 c-4 -5 -2 -12 3 -15 5 -4 12 -2 15 3 4 5 2 12 -3 15 -5 4
-12 2 -15 -3z"/>
<path d="M993 1105 c0 -8 4 -12 9 -9 4 3 8 9 8 15 0 5 -4 9 -8 9 -5 0 -9 -7
-9 -15z"/>
<path d="M1320 1110 c0 -5 5 -10 10 -10 6 0 10 5 10 10 0 6 -4 10 -10 10 -5 0
-10 -4 -10 -10z"/>
<path d="M1403 1105 c0 -8 4 -12 9 -9 4 3 8 9 8 15 0 5 -4 9 -8 9 -5 0 -9 -7
-9 -15z"/>
<path d="M1563 1113 c9 -2 23 -2 30 0 6 3 -1 5 -18 5 -16 0 -22 -2 -12 -5z"/>
<path d="M80 1100 c0 -5 5 -10 10 -10 6 0 10 5 10 10 0 6 -4 10 -10 10 -5 0
-10 -4 -10 -10z"/>
<path d="M1150 1100 c0 -5 5 -10 10 -10 6 0 10 5 10 10 0 6 -4 10 -10 10 -5 0
-10 -4 -10 -10z"/>
<path d="M1720 1100 c0 -5 5 -10 10 -10 6 0 10 5 10 10 0 6 -4 10 -10 10 -5 0
-10 -4 -10 -10z"/>
<path d="M170 1010 c0 -35 3 -40 23 -39 16 1 18 2 5 6 -12 3 -18 14 -18 33 0
19 6 30 18 33 13 4 11 5 -5 6 -20 1 -23 -4 -23 -39z"/>
<path d="M263 1043 c11 -3 17 -14 17 -33 0 -19 -6 -30 -17 -33 -14 -4 -12 -5
5 -6 19 -1 22 4 22 39 0 35 -3 40 -22 39 -17 -1 -19 -2 -5 -6z"/>
<path d="M319 1033 c-12 -16 -12 -17 2 -6 12 10 18 10 29 0 12 -10 12 -9 1 6
-7 9 -15 17 -16 17 -1 0 -9 -8 -16 -17z"/>
<path d="M480 1046 c0 -2 8 -10 18 -17 15 -13 16 -12 3 4 -13 16 -21 21 -21
13z"/>
<path d="M567 1030 c-7 -29 3 -60 20 -60 12 0 12 2 -1 16 -9 8 -16 19 -16 24
0 5 7 16 16 24 13 14 13 16 1 16 -8 0 -17 -9 -20 -20z"/>
<path d="M663 1010 c0 -25 2 -35 4 -22 2 12 2 32 0 45 -2 12 -4 2 -4 -23z"/>
<path d="M754 1034 c9 -8 16 -19 16 -24 0 -5 -7 -16 -16 -24 -13 -14 -13 -16
-1 -16 8 0 17 9 20 20 7 29 -3 60 -20 60 -12 0 -12 -2 1 -16z"/>
<path d="M1130 1036 c7 -7 13 -7 20 0 6 6 3 10 -10 10 -13 0 -16 -4 -10 -10z"/>
<path d="M81 1026 c-20 -24 -9 -51 22 -52 26 -1 26 -1 2 3 -20 3 -25 10 -23
26 4 26 48 38 48 13 0 -9 -8 -16 -17 -16 -16 0 -16 2 -3 11 12 9 12 10 1 7
-26 -7 -25 -30 0 -26 16 2 24 10 24 23 0 25 -37 32 -54 11z"/>
<path d="M795 1029 c-3 -4 2 -6 10 -5 21 3 28 13 10 13 -9 0 -18 -4 -20 -8z"/>
<path d="M1273 1023 c-10 -26 3 -46 32 -50 24 -3 27 -1 15 8 -12 9 -13 12 -1
16 11 5 11 7 0 14 -12 8 -11 11 1 19 11 7 8 9 -14 8 -15 -2 -30 -8 -33 -15z
m27 -18 c0 -8 -4 -17 -10 -20 -6 -4 -10 5 -10 20 0 15 4 24 10 20 6 -3 10 -12
10 -20z"/>
<path d="M1211 1016 c-9 -10 -7 -17 6 -27 16 -12 17 -12 6 2 -10 12 -10 18 -1
27 7 7 9 12 6 12 -3 0 -11 -6 -17 -14z"/>
<path d="M900 1010 c0 -5 5 -10 10 -10 6 0 10 5 10 10 0 6 -4 10 -10 10 -5 0
-10 -4 -10 -10z"/>
<path d="M1118 1013 c-11 -21 -1 -38 22 -38 33 0 36 38 3 43 -11 2 -23 0 -25
-5z m39 -9 c-3 -3 -12 -4 -19 -1 -8 3 -5 6 6 6 11 1 17 -2 13 -5z m-10 -20
c-3 -3 -12 -4 -19 -1 -8 3 -5 6 6 6 11 1 17 -2 13 -5z"/>
<path d="M963 985 c0 -8 4 -12 9 -9 4 3 8 9 8 15 0 5 -4 9 -8 9 -5 0 -9 -7 -9
-15z"/>
<path d="M1043 985 c0 -8 4 -12 9 -9 4 3 8 9 8 15 0 5 -4 9 -8 9 -5 0 -9 -7
-9 -15z"/>
<path d="M1073 985 c0 -8 4 -12 9 -9 4 3 8 9 8 15 0 5 -4 9 -8 9 -5 0 -9 -7
-9 -15z"/>
<path d="M408 973 c12 -2 30 -2 40 0 9 3 -1 5 -23 4 -22 0 -30 -2 -17 -4z"/>
<path d="M1530 940 c-9 -6 -9 -9 1 -12 12 -4 12 -7 1 -21 -8 -9 -11 -21 -7
-27 10 -17 31 -11 44 13 l12 22 -5 -23 c-2 -12 0 -20 5 -16 17 10 9 36 -13 42
-20 5 -21 6 -3 12 18 6 18 7 -2 12 -11 3 -26 2 -33 -2z m25 -49 c-8 -14 -25
-14 -25 0 0 5 5 7 10 4 6 -3 10 -1 10 6 0 7 3 10 6 6 3 -3 3 -10 -1 -16z"/>
<path d="M1858 943 c7 -3 16 -2 19 1 4 3 -2 6 -13 5 -11 0 -14 -3 -6 -6z"/>
<path d="M2172 933 c-9 -9 -10 -13 -1 -13 8 0 8 -4 -1 -15 -10 -12 -10 -19 -2
-27 8 -8 13 -7 18 5 3 9 13 17 21 17 10 0 13 -6 8 -17 -5 -14 -3 -15 6 -6 14
14 4 33 -19 33 -11 0 -13 3 -6 8 9 5 9 10 0 18 -9 8 -15 7 -24 -3z"/>
<path d="M2332 934 c-8 -9 -9 -14 -2 -14 8 0 7 -7 0 -22 -10 -21 -10 -21 10 2
l22 25 -5 -27 c-2 -15 0 -25 4 -22 13 7 10 36 -4 55 -10 14 -14 14 -25 3z"/>
<path d="M2376 927 c3 -10 9 -15 12 -12 3 3 0 11 -7 18 -10 9 -11 8 -5 -6z"/>
<path d="M90 916 c7 -7 13 -7 20 0 6 6 3 10 -10 10 -13 0 -16 -4 -10 -10z"/>
<path d="M960 915 c0 -8 7 -15 15 -15 8 0 15 7 15 15 0 8 -7 15 -15 15 -8 0
-15 -7 -15 -15z"/>
<path d="M1150 920 c0 -5 5 -10 10 -10 6 0 10 5 10 10 0 6 -4 10 -10 10 -5 0
-10 -4 -10 -10z"/>
<path d="M1609 919 c-12 -7 -12 -9 0 -9 10 0 11 -3 2 -14 -17 -20 5 -32 26
-14 14 11 16 11 8 -2 -6 -11 -5 -12 4 -4 24 22 -11 61 -40 43z"/>
<path d="M1681 908 c-1 -31 15 -46 32 -29 9 9 8 11 -5 6 -13 -5 -18 0 -21 22
l-4 28 -2 -27z"/>
<path d="M1737 909 c4 -13 8 -18 11 -10 2 7 -1 18 -6 23 -8 8 -9 4 -5 -13z"/>
<path d="M1850 920 c-11 -8 -8 -9 13 -4 20 5 27 2 27 -9 0 -9 -8 -21 -17 -26
-10 -6 -13 -11 -7 -11 18 0 37 28 30 45 -6 17 -24 19 -46 5z"/>
<path d="M1938 923 c7 -3 16 -2 19 1 4 3 -2 6 -13 5 -11 0 -14 -3 -6 -6z"/>
<path d="M2018 923 l24 -5 -24 -26 c-12 -15 -16 -21 -6 -14 11 9 18 10 23 2 3
-5 14 -9 23 -9 15 1 15 2 0 6 -21 5 -23 24 -6 41 9 9 4 12 -22 11 -26 -1 -29
-3 -12 -6z"/>
<path d="M2098 923 c7 -3 16 -2 19 1 4 3 -2 6 -13 5 -11 0 -14 -3 -6 -6z"/>
<path d="M2250 919 c-12 -7 -12 -9 -1 -9 10 0 11 -3 2 -14 -9 -11 -9 -16 0
-22 7 -4 15 -2 17 4 2 7 8 12 13 12 6 0 7 -6 3 -12 -4 -7 -3 -10 1 -5 5 4 10
18 11 30 2 12 0 16 -2 10 -3 -7 -10 -13 -15 -13 -6 0 -8 4 -4 9 8 14 -9 21
-25 10z"/>
<path d="M493 910 c-29 -12 -29 -60 -1 -52 24 6 32 20 11 18 -9 0 -18 5 -20
12 -3 6 0 12 7 12 6 0 8 -4 5 -10 -3 -5 0 -7 8 -4 7 2 14 11 14 19 0 8 -1 15
-1 14 -1 0 -11 -4 -23 -9z"/>
<path d="M564 908 c-4 -7 -8 -21 -9 -33 0 -15 5 -21 21 -20 12 0 25 3 29 7 3
3 -2 5 -12 5 -12 -2 -18 5 -19 21 -1 16 3 21 13 18 8 -3 11 -1 8 4 -8 14 -22
13 -31 -2z"/>
<path d="M640 906 c-27 -33 18 -72 48 -42 13 13 14 20 6 34 -15 23 -38 26 -54
8z m48 -19 c4 -20 -25 -34 -40 -19 -15 15 -1 44 19 40 10 -2 19 -11 21 -21z"/>
<path d="M655 891 c-6 -11 13 -26 22 -17 4 3 0 6 -8 6 -11 0 -11 2 1 10 9 6
10 10 3 10 -6 0 -14 -4 -18 -9z"/>
<path d="M717 913 c-13 -12 -7 -22 12 -20 11 0 17 6 14 14 -6 14 -16 17 -26 6z"/>
<path d="M806 902 c-15 -18 -15 -20 6 -38 23 -19 23 -19 6 2 -17 19 -17 21 -1
37 10 9 15 17 12 17 -3 0 -13 -8 -23 -18z"/>
<path d="M836 902 c-15 -18 -15 -20 6 -38 23 -19 23 -19 6 2 -17 19 -17 21 -1
37 10 9 15 17 12 17 -3 0 -13 -8 -23 -18z"/>
<path d="M880 906 c-27 -33 18 -72 48 -42 13 13 14 20 6 34 -15 23 -38 26 -54
8z m48 -19 c4 -20 -25 -34 -40 -19 -15 15 -2 41 19 38 10 -2 19 -10 21 -19z"/>
<path d="M890 885 c0 -6 6 -12 13 -12 8 0 14 6 14 12 0 6 -6 12 -14 12 -7 0
-13 -6 -13 -12z"/>
<path d="M1053 903 c16 -16 16 -18 -1 -37 -17 -21 -17 -21 6 -2 21 18 21 20 6
38 -10 10 -20 18 -23 18 -3 0 2 -8 12 -17z"/>
<path d="M1083 903 c16 -16 16 -18 -1 -37 -17 -21 -17 -21 6 -2 21 18 21 20 6
38 -10 10 -20 18 -23 18 -3 0 2 -8 12 -17z"/>
<path d="M1761 903 c-1 -25 14 -39 25 -22 4 7 3 9 -4 5 -6 -3 -12 3 -15 16 -4
23 -4 23 -6 1z"/>
<path d="M1806 907 c3 -10 9 -15 12 -12 3 3 0 11 -7 18 -10 9 -11 8 -5 -6z"/>
<path d="M168 888 c5 -21 6 -21 13 -2 6 14 8 15 8 3 1 -24 31 -19 31 5 0 17
-2 18 -10 6 -6 -10 -10 -11 -10 -2 0 6 -9 12 -19 12 -15 0 -18 -5 -13 -22z"/>
<path d="M268 898 c9 -9 9 -15 -1 -27 -11 -14 -10 -14 6 -2 13 10 15 17 6 27
-6 8 -14 14 -17 14 -3 0 -1 -5 6 -12z"/>
<path d="M1926 901 c-3 -5 3 -7 14 -4 23 6 28 -13 5 -20 -11 -4 -10 -4 2 -3
10 1 18 8 18 16 0 17 -30 26 -39 11z"/>
<path d="M2095 901 c18 -7 18 -8 1 -18 -15 -8 -13 -10 15 -11 21 0 28 2 20 7
-8 5 -10 14 -7 20 5 7 -3 11 -21 10 -24 0 -25 -2 -8 -8z"/>
<path d="M70 890 c0 -5 8 -7 18 -3 15 6 15 4 -2 -15 l-19 -22 31 0 c18 0 32 4
32 10 0 5 -8 7 -17 3 -16 -6 -16 -4 1 15 l19 22 -31 0 c-18 0 -32 -4 -32 -10z"/>
<path d="M325 873 c5 -13 12 -23 15 -23 3 0 10 10 15 23 10 20 8 22 -15 22
-23 0 -25 -2 -15 -22z"/>
<path d="M1130 885 c-6 -8 -9 -19 -5 -25 8 -13 42 -13 51 1 4 8 0 9 -15 4 -23
-7 -28 4 -9 23 8 8 8 12 1 12 -6 0 -16 -7 -23 -15z"/>
<path d="M1277 894 c-4 -4 -7 -15 -7 -24 0 -12 9 -16 35 -16 30 0 35 3 33 21
-3 20 -46 34 -61 19z m43 -14 c0 -5 -7 -10 -15 -10 -8 0 -15 5 -15 10 0 6 7
10 15 10 8 0 15 -4 15 -10z"/>
<path d="M422 870 c0 -14 2 -19 5 -12 2 6 2 18 0 25 -3 6 -5 1 -5 -13z"/>
<path d="M1200 860 c0 -5 5 -10 10 -10 6 0 10 5 10 10 0 6 -4 10 -10 10 -5 0
-10 -4 -10 -10z"/>
<path d="M1529 829 c-11 -7 -10 -9 6 -10 20 0 20 0 0 -8 -17 -7 -17 -8 8 -13
15 -3 30 -1 33 3 3 5 0 9 -6 9 -6 0 -9 4 -6 9 8 13 -18 21 -35 10z"/>
<path d="M1615 820 c-18 -20 -18 -21 5 -43 l24 -22 -18 23 c-18 21 -18 23 -1
42 10 11 16 20 13 20 -3 0 -13 -9 -23 -20z"/>
<path d="M1712 824 c-9 -10 -9 -14 -1 -14 7 0 9 -10 7 -25 -3 -13 -2 -22 2
-20 11 7 18 52 11 63 -3 6 -11 4 -19 -4z"/>
<path d="M1861 833 c-1 -6 -9 -14 -18 -16 -15 -4 -14 -5 3 -6 11 0 26 -7 33
-13 9 -9 12 -9 7 -1 -3 6 0 14 6 16 8 4 7 6 -4 6 -9 1 -19 7 -21 14 -4 8 -6 8
-6 0z"/>
<path d="M2010 829 l-25 -7 24 -1 c23 -1 24 -2 6 -14 -13 -10 -15 -16 -6 -21
6 -4 8 -13 4 -19 -4 -7 0 -6 10 2 9 7 17 22 17 31 0 10 5 20 12 22 23 8 -17
15 -42 7z"/>
<path d="M2079 829 c-10 -28 6 -64 29 -65 19 -1 19 -1 2 3 -24 5 -28 43 -4 43
11 0 14 -6 10 -17 -5 -16 -4 -16 8 0 8 11 12 26 8 35 -4 10 -7 12 -10 4 -2 -7
-10 -12 -17 -12 -7 0 -15 5 -17 12 -3 8 -6 7 -9 -3z"/>
<path d="M2190 825 c-7 -8 -20 -15 -29 -16 -14 0 -14 -1 -1 -7 8 -4 15 -14 15
-22 0 -8 7 -15 15 -16 9 0 10 1 3 3 -20 7 -15 23 10 33 19 7 19 9 3 9 -15 1
-16 4 -6 16 7 8 10 15 7 15 -2 0 -10 -7 -17 -15z"/>
<path d="M2260 830 c0 -5 -8 -10 -17 -11 -11 0 -13 -3 -6 -6 10 -3 10 -10 2
-25 -6 -11 -8 -22 -6 -25 3 -2 8 5 12 17 4 12 15 24 25 28 15 6 16 9 4 20 -8
7 -14 8 -14 2z"/>
<path d="M2325 829 c-11 -4 -14 -8 -7 -8 8 -1 11 -8 7 -20 -5 -15 -1 -18 20
-13 25 4 36 -13 13 -21 -9 -2 -8 -4 1 -3 23 2 25 27 2 33 -26 7 -27 20 -3 25
14 3 14 5 2 9 -8 4 -24 3 -35 -2z"/>
<path d="M2725 832 c-6 -4 -11 -18 -12 -32 -3 -24 -2 -24 9 -5 6 11 16 23 21
26 5 4 5 9 0 12 -5 3 -13 3 -18 -1z"/>
<path d="M1670 806 c0 -14 4 -27 8 -30 5 -3 6 8 4 25 -5 35 -12 38 -12 5z"/>
<path d="M1760 826 c0 -2 11 -6 25 -8 13 -3 22 -1 19 3 -5 9 -44 13 -44 5z"/>
<path d="M1922 802 c-2 -35 20 -54 40 -34 8 8 5 9 -10 5 -17 -4 -21 0 -25 29
l-4 33 -1 -33z"/>
<path d="M2568 823 c19 -4 21 -7 11 -19 -9 -11 -9 -17 1 -29 7 -8 17 -15 23
-15 6 0 2 7 -9 15 -19 15 -19 15 5 35 l23 20 -38 -1 c-25 -1 -30 -3 -16 -6z"/>
<path d="M2645 797 c0 -28 4 -32 28 -33 25 -1 25 -1 2 3 -33 6 -32 18 3 38 15
9 19 14 8 10 -10 -3 -24 -1 -30 4 -8 7 -11 0 -11 -22z"/>
<path d="M166 812 c-2 -4 4 -8 14 -8 10 0 16 4 14 8 -3 4 -9 8 -14 8 -5 0 -11
-4 -14 -8z"/>
<path d="M245 809 c-3 -4 2 -6 10 -5 21 3 28 13 10 13 -9 0 -18 -4 -20 -8z"/>
<path d="M409 815 c-1 -3 -2 -9 -3 -14 0 -5 -4 -13 -8 -17 -5 -4 -8 -15 -8
-24 0 -12 9 -16 35 -16 44 0 48 28 8 51 -16 9 -20 14 -10 11 11 -3 15 -2 12 4
-6 10 -24 14 -26 5z m31 -45 c0 -5 -7 -10 -15 -10 -8 0 -15 5 -15 10 0 6 7 10
15 10 8 0 15 -4 15 -10z"/>
<path d="M806 812 c-2 -4 4 -8 14 -8 10 0 16 4 14 8 -3 4 -9 8 -14 8 -5 0 -11
-4 -14 -8z"/>
<path d="M1136 812 c-2 -4 4 -8 14 -8 10 0 16 4 14 8 -3 4 -9 8 -14 8 -5 0
-11 -4 -14 -8z"/>
<path d="M2418 813 c35 -5 43 -26 15 -42 -10 -6 -13 -11 -7 -11 18 0 37 28 30
45 -3 10 -17 14 -38 13 l-33 -1 33 -4z"/>
<path d="M477 803 c-10 -10 -8 -63 2 -63 5 0 12 6 14 13 4 10 6 10 6 0 1 -7
11 -13 24 -13 18 0 19 2 7 11 -12 9 -13 12 -1 16 11 5 11 7 0 14 -12 8 -11 11
1 19 12 7 8 10 -16 10 -17 0 -34 -3 -37 -7z m20 -25 c-3 -8 -6 -5 -6 6 -1 11
2 17 5 13 3 -3 4 -12 1 -19z"/>
<path d="M567 803 c-14 -13 -7 -43 12 -52 14 -8 20 -7 24 3 4 10 0 12 -14 9
-15 -4 -19 0 -19 17 0 17 4 21 20 17 11 -3 18 -1 14 4 -6 11 -28 12 -37 2z"/>
<path d="M1278 793 c-8 -36 2 -54 30 -51 23 2 27 8 27 33 0 25 -4 31 -26 33
-19 2 -28 -2 -31 -15z m42 -18 c0 -14 -4 -25 -9 -25 -5 0 -8 11 -8 25 0 14 3
25 8 25 5 0 9 -11 9 -25z"/>
<path d="M2493 803 c31 -5 35 -17 10 -32 -10 -6 -13 -11 -7 -11 17 0 37 27 29
40 -3 5 -18 9 -33 9 l-27 -2 28 -4z"/>
<path d="M2744 796 c-15 -12 -17 -17 -6 -27 10 -11 15 -10 27 1 22 22 4 44
-21 26z m16 -16 c0 -5 -4 -10 -10 -10 -5 0 -10 5 -10 10 0 6 5 10 10 10 6 0
10 -4 10 -10z"/>
<path d="M2278 793 c7 -3 16 -2 19 1 4 3 -2 6 -13 5 -11 0 -14 -3 -6 -6z"/>
<path d="M77 784 c-4 -4 -7 -15 -7 -24 0 -12 9 -16 35 -16 30 0 35 3 33 21 -3
20 -46 34 -61 19z m43 -14 c0 -5 -7 -10 -15 -10 -8 0 -15 5 -15 10 0 6 7 10
15 10 8 0 15 -4 15 -10z"/>
<path d="M157 784 c-4 -4 -7 -15 -7 -24 0 -12 9 -16 35 -16 30 0 35 3 33 21
-3 20 -46 34 -61 19z m43 -14 c0 -5 -7 -10 -15 -10 -8 0 -15 5 -15 10 0 6 7
10 15 10 8 0 15 -4 15 -10z"/>
<path d="M237 784 c-4 -4 -7 -15 -7 -24 0 -12 9 -16 35 -16 30 0 35 3 33 21
-3 20 -46 34 -61 19z m43 -14 c0 -5 -7 -10 -15 -10 -8 0 -15 5 -15 10 0 6 7
10 15 10 8 0 15 -4 15 -10z"/>
<path d="M317 784 c-4 -4 -7 -15 -7 -24 0 -12 9 -16 35 -16 30 0 35 3 33 21
-3 20 -46 34 -61 19z m43 -14 c0 -5 -7 -10 -15 -10 -8 0 -15 5 -15 10 0 6 7
10 15 10 8 0 15 -4 15 -10z"/>
<path d="M630 765 c0 -22 4 -25 38 -24 37 1 37 1 7 9 -28 7 -29 8 -5 10 l25 2
-25 8 -25 7 30 5 c28 5 27 5 -7 7 -34 1 -38 -2 -38 -24z"/>
<path d="M710 765 c0 -22 4 -25 38 -24 37 1 37 1 7 9 -28 7 -29 8 -5 10 l25 2
-25 8 -25 7 30 5 c28 5 27 5 -7 7 -34 1 -38 -2 -38 -24z"/>
<path d="M790 765 c0 -22 4 -25 38 -24 37 1 37 1 7 9 -28 7 -29 8 -5 10 l25 2
-25 8 -25 7 30 5 c28 5 27 5 -7 7 -34 1 -38 -2 -38 -24z"/>
<path d="M870 765 c0 -22 4 -25 38 -24 37 1 37 1 7 9 -28 7 -29 8 -5 10 l25 2
-25 8 -25 7 30 5 c28 5 27 5 -7 7 -34 1 -38 -2 -38 -24z"/>
<path d="M980 765 c0 -14 5 -25 10 -25 6 0 10 11 10 25 0 14 -4 25 -10 25 -5
0 -10 -11 -10 -25z"/>
<path d="M1060 765 c0 -14 5 -25 10 -25 6 0 10 11 10 25 0 14 -4 25 -10 25 -5
0 -10 -11 -10 -25z"/>
<path d="M1140 765 c0 -14 5 -25 10 -25 6 0 10 11 10 25 0 14 -4 25 -10 25 -5
0 -10 -11 -10 -25z"/>
<path d="M1220 765 c0 -14 5 -25 10 -25 6 0 10 11 10 25 0 14 -4 25 -10 25 -5
0 -10 -11 -10 -25z"/>
<path d="M1528 768 c6 -6 18 -8 28 -6 14 3 12 5 -9 10 -19 3 -25 2 -19 -4z"/>
<path d="M1759 767 c5 -5 19 -7 32 -5 20 3 19 5 -9 9 -20 3 -29 2 -23 -4z"/>
<path d="M1848 768 c6 -6 18 -8 28 -6 14 3 12 5 -9 10 -19 3 -25 2 -19 -4z"/>
<path d="M2268 768 c5 -5 16 -8 23 -6 8 3 3 7 -10 11 -17 4 -21 3 -13 -5z"/>
<path d="M1630 721 c0 -7 -6 -11 -14 -8 -17 7 -32 -41 -17 -56 7 -7 14 -1 22
16 7 15 16 27 21 27 11 0 10 -18 -2 -25 -12 -7 -4 -25 11 -25 14 0 10 43 -6
64 -9 12 -15 15 -15 7z m-19 -48 c-12 -20 -14 -14 -5 12 4 9 9 14 11 11 3 -2
0 -13 -6 -23z"/>
<path d="M1683 715 c-10 -11 -10 -14 0 -18 9 -3 8 -8 -3 -22 -8 -10 -10 -16
-3 -12 6 4 14 1 16 -5 3 -7 6 -3 6 9 1 23 18 40 28 29 4 -4 1 -12 -5 -18 -17
-17 -15 -38 4 -31 20 7 15 58 -6 58 -8 0 -17 5 -20 11 -4 9 -8 8 -17 -1z"/>
<path d="M1871 721 c-11 -7 -11 -9 0 -13 9 -3 7 -10 -9 -26 l-21 -21 -4 32 -4
32 -1 -31 c-3 -42 22 -63 46 -41 10 9 17 28 17 42 -2 31 -7 36 -24 26z m9 -50
c0 -5 -7 -11 -14 -14 -10 -4 -13 -1 -9 9 6 15 23 19 23 5z"/>
<path d="M1919 721 c9 -6 10 -11 2 -15 -17 -11 -13 -46 6 -53 19 -8 57 33 46
50 -4 7 -9 2 -13 -13 -7 -29 -40 -41 -40 -14 0 10 7 26 17 36 15 17 15 18 -8
18 -17 0 -20 -3 -10 -9z"/>
<path d="M2013 723 c14 -4 16 -8 6 -19 -8 -10 -8 -14 0 -14 17 0 13 -21 -6
-36 -16 -12 -15 -13 12 -13 17 0 25 3 19 5 -5 2 -9 22 -8 44 2 35 -1 40 -20
39 -17 -1 -18 -2 -3 -6z"/>
<path d="M2190 720 c13 -9 13 -10 0 -10 -12 0 -12 -2 -2 -9 11 -7 11 -9 -2
-14 -9 -4 -16 -12 -16 -19 0 -9 3 -9 10 2 5 8 12 11 17 7 9 -9 -17 -28 -29
-21 -4 3 -9 20 -9 37 -1 19 -3 24 -6 14 -9 -36 6 -67 32 -67 14 0 24 3 24 8
-1 4 0 9 1 12 1 3 3 20 4 38 2 27 -1 32 -18 32 -17 0 -18 -2 -6 -10z"/>
<path d="M2249 719 c-12 -7 -12 -9 1 -9 13 0 13 -1 0 -10 -13 -8 -13 -10 -1
-10 11 0 10 -3 -3 -13 -16 -11 -16 -15 -3 -25 12 -10 16 -9 21 3 3 10 11 13
18 9 9 -5 9 -3 -1 9 -11 14 -11 17 0 17 12 0 12 2 0 9 -11 7 -11 9 0 13 10 3
9 6 -2 10 -9 3 -22 2 -30 -3z"/>
<path d="M2400 719 c-12 -7 -12 -9 -1 -9 11 0 11 -3 1 -15 -19 -23 15 -59 41
-44 11 5 19 15 18 22 0 9 -2 9 -6 0 -2 -7 -13 -13 -23 -13 -16 0 -17 4 -10 30
9 33 2 44 -20 29z"/>
<path d="M2510 721 c0 -7 -6 -11 -14 -8 -17 7 -32 -41 -17 -56 7 -7 14 -1 22
16 15 34 33 35 27 2 -3 -13 -1 -22 3 -19 5 3 9 13 9 22 -1 20 -30 62 -30 43z
m-19 -48 c-12 -20 -14 -14 -5 12 4 9 9 14 11 11 3 -2 0 -13 -6 -23z"/>
<path d="M2569 722 c-4 -26 -4 -39 4 -54 8 -19 32 -24 41 -9 4 5 -3 7 -14 4
-11 -3 -20 0 -20 6 0 6 6 11 13 11 8 0 7 4 -3 10 -12 8 -13 12 -2 19 11 7 11
9 -2 14 -9 4 -17 3 -17 -1z"/>
<path d="M2638 718 c-3 -8 0 -27 8 -43 l13 -30 -5 28 c-5 23 -3 27 16 27 17 0
21 -4 15 -17 -5 -14 -3 -15 6 -6 9 9 8 16 -4 33 -11 15 -16 18 -20 8 -5 -11
-7 -11 -15 0 -8 11 -10 11 -14 0z"/>
<path d="M1510 691 c0 -17 4 -32 8 -35 4 -2 6 11 4 30 -5 42 -12 45 -12 5z"/>
<path d="M1548 713 c6 -2 18 -2 25 0 6 3 1 5 -13 5 -14 0 -19 -2 -12 -5z"/>
<path d="M1762 708 c-13 -13 -16 -41 -5 -51 9 -10 33 13 32 32 0 10 -4 7 -11
-9 -10 -22 -12 -23 -15 -6 -6 24 11 40 32 32 12 -4 16 -14 13 -31 -3 -13 -1
-22 3 -19 22 13 1 64 -26 64 -6 0 -16 -5 -23 -12z"/>
<path d="M2330 710 c13 -8 12 -11 -5 -24 -19 -14 -19 -15 -2 -33 10 -10 17
-13 16 -8 -3 21 1 35 12 35 6 0 8 -7 5 -16 -5 -14 -4 -15 8 -5 15 13 11 45 -5
35 -5 -3 -9 2 -9 10 0 9 -8 16 -17 16 -15 0 -16 -2 -3 -10z"/>
<path d="M85 699 c-3 -4 2 -6 10 -5 21 3 28 13 10 13 -9 0 -18 -4 -20 -8z"/>
<path d="M326 702 c-2 -4 4 -8 14 -8 10 0 16 4 14 8 -3 4 -9 8 -14 8 -5 0 -11
-4 -14 -8z"/>
<path d="M405 699 c-3 -4 2 -6 10 -5 21 3 28 13 10 13 -9 0 -18 -4 -20 -8z"/>
<path d="M806 702 c-2 -4 4 -8 14 -8 10 0 16 4 14 8 -3 4 -9 8 -14 8 -5 0 -11
-4 -14 -8z"/>
<path d="M2079 693 c-11 -15 -11 -16 1 -6 11 10 19 9 39 -10 l26 -22 -24 28
c-14 15 -25 27 -27 27 -1 0 -8 -8 -15 -17z"/>
<path d="M2715 700 c-3 -6 13 -50 19 -50 2 0 2 9 -1 20 -4 14 0 20 11 20 11 0
14 -5 10 -12 -4 -7 -3 -8 4 -4 17 10 4 32 -19 32 -11 0 -22 -3 -24 -6z"/>
<path d="M556 691 c-3 -5 -5 -20 -4 -33 2 -20 7 -25 28 -24 21 1 25 6 26 31 1
25 -3 31 -22 33 -13 1 -25 -2 -28 -7z m42 -29 c3 -19 -1 -23 -15 -20 -10 2
-19 14 -21 26 -3 19 1 23 15 20 10 -2 19 -14 21 -26z"/>
<path d="M575 669 c-4 -6 -5 -12 -2 -15 2 -3 7 2 10 11 7 17 1 20 -8 4z"/>
<path d="M1040 665 c0 -34 1 -34 20 -18 11 10 20 21 20 25 0 4 -9 12 -20 18
-18 10 -20 8 -20 -25z m30 5 c0 -5 -4 -10 -10 -10 -5 0 -10 5 -10 10 0 6 5 10
10 10 6 0 10 -4 10 -10z"/>
<path d="M1117 694 c-11 -11 -8 -64 3 -64 6 0 10 14 10 30 0 22 5 30 18 30 14
0 15 -2 2 -10 -10 -6 -11 -10 -2 -10 6 0 12 -6 12 -14 0 -8 -6 -17 -12 -20 -7
-3 -4 -5 7 -3 15 2 20 10 20 32 0 25 -5 31 -25 33 -14 2 -29 0 -33 -4z"/>
<path d="M70 655 c0 -14 5 -25 10 -25 6 0 10 7 10 17 0 15 1 15 18 0 25 -23
32 -21 32 8 0 14 -4 25 -10 25 -5 0 -10 -7 -10 -17 0 -15 -1 -15 -18 0 -25 23
-32 21 -32 -8z"/>
<path d="M154 665 c-9 -22 9 -37 37 -33 16 2 24 10 24 23 0 26 -52 35 -61 10z
m46 -10 c0 -8 -7 -15 -15 -15 -8 0 -15 7 -15 15 0 8 7 15 15 15 8 0 15 -7 15
-15z"/>
<path d="M234 665 c-9 -22 9 -37 37 -33 16 2 24 10 24 23 0 26 -52 35 -61 10z
m46 -10 c0 -8 -7 -15 -15 -15 -8 0 -15 7 -15 15 0 8 7 15 15 15 8 0 15 -7 15
-15z"/>
<path d="M314 665 c-9 -22 9 -37 37 -33 16 2 24 10 24 23 0 26 -52 35 -61 10z
m46 -10 c0 -8 -7 -15 -15 -15 -8 0 -15 7 -15 15 0 8 7 15 15 15 8 0 15 -7 15
-15z"/>
<path d="M394 665 c-9 -22 9 -37 37 -33 16 2 24 10 24 23 0 26 -52 35 -61 10z
m46 -10 c0 -8 -7 -15 -15 -15 -8 0 -15 7 -15 15 0 8 7 15 15 15 8 0 15 -7 15
-15z"/>
<path d="M474 665 c-9 -22 9 -37 37 -33 16 2 24 10 24 23 0 26 -52 35 -61 10z
m46 -10 c0 -8 -7 -15 -15 -15 -8 0 -15 7 -15 15 0 8 7 15 15 15 8 0 15 -7 15
-15z"/>
<path d="M632 658 c2 -18 10 -23 33 -23 23 0 31 5 33 23 2 12 -1 22 -7 22 -6
0 -11 -9 -11 -20 0 -11 -7 -20 -15 -20 -8 0 -15 9 -15 20 0 11 -5 20 -11 20
-6 0 -9 -10 -7 -22z"/>
<path d="M712 658 c2 -18 10 -23 33 -23 23 0 31 5 33 23 2 12 -1 22 -7 22 -6
0 -11 -9 -11 -20 0 -11 -7 -20 -15 -20 -8 0 -15 9 -15 20 0 11 -5 20 -11 20
-6 0 -9 -10 -7 -22z"/>
<path d="M792 658 c2 -18 10 -23 33 -23 23 0 31 5 33 23 2 12 -1 22 -7 22 -6
0 -11 -9 -11 -20 0 -11 -7 -20 -15 -20 -8 0 -15 9 -15 20 0 11 -5 20 -11 20
-6 0 -9 -10 -7 -22z"/>
<path d="M872 658 c2 -18 10 -23 33 -23 23 0 31 5 33 23 2 12 -1 22 -7 22 -6
0 -11 -9 -11 -20 0 -11 -7 -20 -15 -20 -8 0 -15 9 -15 20 0 11 -5 20 -11 20
-6 0 -9 -10 -7 -22z"/>
<path d="M965 653 c5 -13 12 -23 15 -23 3 0 10 10 15 23 10 20 8 22 -15 22
-23 0 -25 -2 -15 -22z"/>
<path d="M1277 673 c-4 -3 -7 -14 -7 -24 0 -15 7 -18 35 -17 30 1 35 5 35 25
0 19 -5 23 -28 23 -16 0 -32 -3 -35 -7z m41 -15 c-6 -18 -28 -21 -28 -4 0 9 7
16 16 16 9 0 14 -5 12 -12z"/>
<path d="M1190 648 c0 -22 7 -23 26 -4 19 20 18 25 -6 23 -12 -1 -20 -8 -20
-19z"/>
<path d="M1547 654 c2 -7 11 -10 19 -7 19 7 18 10 -5 16 -13 3 -18 1 -14 -9z"/>
<path d="M1240 640 c0 -5 5 -10 10 -10 6 0 10 5 10 10 0 6 -4 10 -10 10 -5 0
-10 -4 -10 -10z"/>
<path d="M1540 600 c-8 -5 -18 -6 -22 -4 -4 3 -8 -5 -8 -18 1 -20 2 -21 11 -5
12 21 29 22 29 1 0 -8 -4 -12 -10 -9 -6 3 -7 -1 -4 -9 5 -12 11 -13 25 -5 10
5 19 16 19 23 0 21 -24 36 -40 26z m27 -32 c-3 -8 -6 -5 -6 6 -1 11 2 17 5 13
3 -3 4 -12 1 -19z"/>
<path d="M1710 599 c0 -7 -8 -18 -17 -25 -14 -10 -15 -15 -6 -25 9 -9 16 -9
26 -1 8 7 17 8 22 4 4 -4 1 3 -6 16 -12 19 -12 24 1 32 13 8 12 10 -2 10 -10
0 -18 -5 -18 -11z m0 -39 c0 -5 -4 -10 -10 -10 -5 0 -10 5 -10 10 0 6 5 10 10
10 6 0 10 -4 10 -10z"/>
<path d="M1922 590 c0 -14 2 -19 5 -12 2 6 2 18 0 25 -3 6 -5 1 -5 -13z"/>
<path d="M1961 588 c0 -15 -9 -32 -18 -37 -10 -6 -13 -11 -7 -11 19 0 36 28
31 52 -4 21 -4 20 -6 -4z"/>
<path d="M2007 592 c-16 -18 -15 -18 13 -14 19 3 30 0 30 -8 0 -7 -8 -9 -19
-5 -24 7 -39 -13 -16 -21 20 -8 50 19 41 35 -4 6 -15 11 -24 11 -15 0 -15 2
-2 10 8 5 10 10 4 10 -6 0 -18 -8 -27 -18z"/>
<path d="M2081 601 c-11 -7 -11 -9 0 -13 12 -4 11 -8 -1 -23 -9 -11 -10 -16
-2 -11 7 4 12 2 13 -6 1 -7 4 -2 8 11 8 31 31 40 31 12 0 -11 4 -22 9 -25 5
-4 6 5 2 21 -4 16 -14 28 -22 28 -8 0 -16 3 -19 7 -3 4 -12 3 -19 -1z"/>
<path d="M2167 592 c-16 -18 -15 -18 13 -14 36 5 41 -14 8 -28 -16 -6 -18 -9
-7 -9 21 -1 43 25 34 39 -3 5 -14 10 -23 10 -15 0 -15 2 -2 10 8 5 10 10 4 10
-6 0 -18 -8 -27 -18z"/>
<path d="M2241 601 c-11 -7 -11 -9 0 -13 12 -4 11 -8 -1 -23 -9 -11 -10 -16
-2 -11 7 4 12 2 13 -6 1 -7 4 -2 8 11 10 36 35 41 29 7 -4 -18 -2 -24 4 -18
14 14 5 47 -12 47 -8 0 -17 3 -20 7 -3 4 -12 3 -19 -1z"/>
<path d="M2313 595 c0 -8 4 -15 8 -15 4 0 6 -8 5 -17 -1 -12 7 -18 22 -19 18
-1 19 -1 2 3 -11 2 -20 9 -20 15 0 5 7 7 16 4 8 -3 13 -2 9 3 -3 5 -2 11 2 14
5 2 3 2 -4 1 -20 -5 -25 14 -6 19 12 3 9 5 -8 6 -17 1 -26 -4 -26 -14z"/>
<path d="M2405 580 c-16 -31 -21 -54 -6 -31 8 12 12 13 26 1 13 -11 18 -11 28
0 9 10 9 11 -1 6 -19 -11 -42 17 -30 37 5 9 7 17 4 17 -3 0 -12 -13 -21 -30z"/>
<path d="M2498 603 c20 -3 30 -8 26 -15 -4 -7 -2 -8 4 -4 24 14 11 26 -25 24
-38 -1 -38 -1 -5 -5z"/>
<path d="M2650 588 c-15 -12 -18 -19 -8 -15 12 4 18 0 21 -16 4 -20 4 -19 6 4
0 14 6 30 13 37 21 21 -6 12 -32 -10z"/>
<path d="M166 592 c-2 -4 4 -8 14 -8 10 0 16 4 14 8 -3 4 -9 8 -14 8 -5 0 -11
-4 -14 -8z"/>
<path d="M245 589 c-3 -4 2 -6 10 -5 21 3 28 13 10 13 -9 0 -18 -4 -20 -8z"/>
<path d="M409 595 c-1 -3 -2 -9 -3 -14 0 -5 -4 -13 -8 -17 -5 -4 -8 -15 -8
-25 0 -15 7 -18 35 -17 29 1 35 5 35 23 0 12 -9 25 -22 31 -13 6 -17 9 -10 7
7 -1 10 2 7 7 -6 10 -24 14 -26 5z m29 -47 c-6 -18 -28 -21 -28 -4 0 9 7 16
16 16 9 0 14 -5 12 -12z"/>
<path d="M806 592 c-2 -4 4 -8 14 -8 10 0 16 4 14 8 -3 4 -9 8 -14 8 -5 0 -11
-4 -14 -8z"/>
<path d="M1136 592 c-2 -4 4 -8 14 -8 10 0 16 4 14 8 -3 4 -9 8 -14 8 -5 0
-11 -4 -14 -8z"/>
<path d="M1289 591 c12 -8 12 -10 0 -14 -8 -2 -6 -3 4 -2 24 4 21 -12 -4 -18
-25 -7 -20 -30 7 -36 10 -2 22 -8 26 -14 4 -6 10 -8 15 -4 4 5 3 11 -2 15 -6
4 -11 16 -13 27 -1 11 -3 27 -4 36 -1 8 -11 16 -22 17 -15 1 -17 -1 -7 -7z
m31 -51 c0 -5 -9 -10 -20 -10 -11 0 -20 5 -20 10 0 6 9 10 20 10 11 0 20 -4
20 -10z"/>
<path d="M1619 599 c0 -2 -2 -16 -3 -31 -1 -22 1 -25 16 -17 10 5 18 13 18 18
0 9 -29 37 -31 30z"/>
<path d="M1780 586 c0 -8 -7 -17 -16 -20 -22 -8 -9 -21 21 -21 19 -1 22 2 13
13 -9 10 -9 15 1 21 10 6 9 10 -3 14 -10 4 -16 1 -16 -7z"/>
<path d="M1841 582 c-1 -19 3 -21 24 -16 27 7 36 -11 10 -19 -11 -4 -10 -4 2
-3 25 2 23 31 -2 31 -11 0 -23 7 -27 15 -5 11 -7 9 -7 -8z"/>
<path d="M2568 593 c12 -2 22 -9 22 -14 0 -6 -4 -8 -9 -5 -5 3 -11 -4 -14 -15
-5 -20 -5 -20 14 -3 28 25 24 44 -8 43 -24 -2 -25 -2 -5 -6z"/>
<path d="M2726 585 c-11 -8 -15 -15 -9 -15 7 0 14 -8 16 -17 3 -12 5 -8 6 9 0
14 7 29 14 31 6 3 8 6 2 6 -5 0 -19 -6 -29 -14z"/>
<path d="M1590 571 c0 -25 6 -27 13 -6 4 8 2 17 -3 20 -6 4 -10 -3 -10 -14z"/>
<path d="M2498 567 c-3 -19 -2 -25 4 -19 6 6 8 18 6 28 -3 14 -5 12 -10 -9z"/>
<path d="M567 573 c-13 -12 -7 -32 12 -42 14 -8 20 -7 24 3 4 10 0 12 -14 9
-13 -4 -19 0 -19 12 0 12 6 16 20 12 11 -3 18 -1 14 4 -6 11 -28 12 -37 2z"/>
<path d="M77 563 c-4 -3 -7 -14 -7 -24 0 -15 7 -18 35 -17 30 1 35 5 35 25 0
19 -5 23 -28 23 -16 0 -32 -3 -35 -7z m41 -15 c-6 -18 -28 -21 -28 -4 0 9 7
16 16 16 9 0 14 -5 12 -12z"/>
<path d="M157 563 c-4 -3 -7 -14 -7 -24 0 -15 7 -18 35 -17 30 1 35 5 35 25 0
19 -5 23 -28 23 -16 0 -32 -3 -35 -7z m41 -15 c-6 -18 -28 -21 -28 -4 0 9 7
16 16 16 9 0 14 -5 12 -12z"/>
<path d="M237 563 c-4 -3 -7 -14 -7 -24 0 -15 7 -18 35 -17 30 1 35 5 35 25 0
19 -5 23 -28 23 -16 0 -32 -3 -35 -7z m41 -15 c-6 -18 -28 -21 -28 -4 0 9 7
16 16 16 9 0 14 -5 12 -12z"/>
<path d="M317 563 c-4 -3 -7 -14 -7 -24 0 -15 7 -18 35 -17 30 1 35 5 35 25 0
19 -5 23 -28 23 -16 0 -32 -3 -35 -7z m41 -15 c-6 -18 -28 -21 -28 -4 0 9 7
16 16 16 9 0 14 -5 12 -12z"/>
<path d="M477 564 c-4 -4 -7 -15 -7 -24 0 -13 9 -17 38 -18 29 0 33 2 17 8
-18 8 -18 9 -2 9 10 1 17 7 15 14 -5 13 -50 22 -61 11z m23 -13 c0 -6 -4 -13
-10 -16 -5 -3 -10 1 -10 9 0 9 5 16 10 16 6 0 10 -4 10 -9z"/>
<path d="M634 556 c-9 -24 5 -36 39 -35 l32 1 -30 8 -30 8 28 1 c36 1 31 25
-6 29 -17 2 -29 -2 -33 -12z m43 -2 c-3 -3 -12 -4 -19 -1 -8 3 -5 6 6 6 11 1
17 -2 13 -5z"/>
<path d="M714 556 c-9 -24 5 -36 39 -35 l32 1 -30 8 -30 8 28 1 c36 1 31 25
-6 29 -17 2 -29 -2 -33 -12z m43 -2 c-3 -3 -12 -4 -19 -1 -8 3 -5 6 6 6 11 1
17 -2 13 -5z"/>
<path d="M794 556 c-9 -24 5 -36 39 -35 l32 1 -30 8 -30 8 28 1 c36 1 31 25
-6 29 -17 2 -29 -2 -33 -12z m43 -2 c-3 -3 -12 -4 -19 -1 -8 3 -5 6 6 6 11 1
17 -2 13 -5z"/>
<path d="M874 556 c-9 -24 5 -36 39 -35 l32 1 -30 8 -30 8 28 1 c36 1 31 25
-6 29 -17 2 -29 -2 -33 -12z m43 -2 c-3 -3 -12 -4 -19 -1 -8 3 -5 6 6 6 11 1
17 -2 13 -5z"/>
<path d="M980 545 c0 -14 5 -25 10 -25 6 0 10 11 10 25 0 14 -4 25 -10 25 -5
0 -10 -11 -10 -25z"/>
<path d="M1060 545 c0 -14 5 -25 10 -25 6 0 10 11 10 25 0 14 -4 25 -10 25 -5
0 -10 -11 -10 -25z"/>
<path d="M1140 545 c0 -14 5 -25 10 -25 6 0 10 11 10 25 0 14 -4 25 -10 25 -5
0 -10 -11 -10 -25z"/>
<path d="M1220 545 c0 -14 5 -25 10 -25 6 0 10 11 10 25 0 14 -4 25 -10 25 -5
0 -10 -11 -10 -25z"/>
<path d="M1528 502 c-10 -2 -18 -11 -17 -20 0 -11 2 -12 6 -4 2 6 16 12 29 12
30 0 33 -30 4 -37 -11 -3 -20 -10 -20 -15 0 -18 45 19 48 39 3 21 -18 32 -50
25z"/>
<path d="M1850 499 c-16 -4 -19 -7 -7 -8 9 -1 17 -5 17 -11 0 -5 -8 -14 -17
-19 -10 -6 -13 -11 -6 -11 6 0 15 5 19 12 5 8 10 6 15 -8 6 -16 8 -15 8 8 1
14 6 28 13 30 23 8 -17 15 -42 7z"/>
<path d="M1999 506 c-5 -7 -2 -63 4 -59 4 2 7 13 7 24 0 11 7 19 16 19 12 0
15 -7 12 -25 -3 -14 -1 -25 3 -25 5 0 9 13 9 29 0 23 -5 30 -25 33 -14 3 -25
5 -26 4z"/>
<path d="M2079 499 c-12 -7 -12 -9 1 -9 13 0 13 -1 0 -10 -13 -8 -12 -10 3
-10 9 0 17 -8 18 -17 0 -14 2 -15 6 -3 3 8 11 18 17 22 7 5 3 8 -9 8 -15 0
-17 3 -7 9 11 7 11 9 -1 14 -7 3 -20 1 -28 -4z"/>
<path d="M2159 493 c-11 -15 -11 -16 1 -5 17 14 40 16 40 2 0 -5 -9 -19 -20
-30 -11 -11 -16 -20 -11 -20 12 0 41 40 41 57 0 19 -35 16 -51 -4z"/>
<path d="M2236 487 c-4 -15 -2 -17 7 -8 6 6 17 11 24 11 19 0 16 -27 -4 -39
-10 -6 -13 -11 -7 -11 13 0 28 17 37 41 4 13 -2 18 -23 21 -22 3 -30 0 -34
-15z"/>
<path d="M2395 500 c-2 -3 0 -12 6 -20 6 -10 9 -11 9 -2 0 6 7 12 15 12 21 0
19 -38 -2 -43 -17 -4 -17 -5 0 -6 18 -1 23 8 29 43 2 15 -4 19 -25 20 -16 1
-30 -1 -32 -4z"/>
<path d="M2478 503 c7 -3 16 -2 19 1 4 3 -2 6 -13 5 -11 0 -14 -3 -6 -6z"/>
<path d="M2575 501 l30 -6 -27 -28 c-15 -15 -24 -27 -20 -27 5 0 13 5 20 12 8
8 15 8 29 -3 16 -13 17 -12 5 3 -8 10 -11 26 -7 38 6 17 2 20 -27 19 l-33 -1
30 -7z"/>
<path d="M2636 503 c-2 -2 -1 -16 3 -31 5 -18 14 -27 29 -28 20 -1 20 -1 2 3
-24 5 -28 43 -4 43 9 0 12 -5 8 -12 -4 -7 -3 -8 4 -4 7 4 12 11 12 15 0 9 -47
21 -54 14z"/>
<path d="M2761 498 c-1 -10 -10 -27 -21 -38 -11 -11 -16 -20 -10 -20 14 0 43
47 37 62 -4 8 -6 6 -6 -4z"/>
<path d="M1603 493 c-21 -8 -15 -22 7 -16 22 6 29 -22 8 -30 -8 -2 -7 -3 2 -3
8 1 16 11 18 22 3 22 -13 34 -35 27z"/>
<path d="M1688 493 c18 -7 15 -41 -5 -46 -10 -3 0 -5 22 -5 22 0 32 2 23 5
-21 5 -24 39 -5 46 6 3 -1 5 -18 5 -16 0 -24 -2 -17 -5z"/>
<path d="M1925 489 l-20 -8 20 -1 20 -1 -20 -16 c-15 -12 -16 -14 -3 -10 9 3
19 1 21 -6 2 -7 6 0 9 16 6 32 1 38 -27 26z"/>
<path d="M2333 493 c18 -3 27 -10 27 -23 0 -13 -9 -20 -27 -23 -26 -4 -26 -4
5 -6 29 -1 32 2 32 29 0 27 -3 30 -32 29 -31 -2 -31 -2 -5 -6z"/>
<path d="M2529 480 c-3 -15 -13 -27 -29 -31 -22 -6 -22 -7 -4 -8 26 -1 47 22
42 46 -4 14 -6 12 -9 -7z"/>
<path d="M1767 474 c3 -9 0 -20 -8 -25 -10 -6 -5 -9 16 -9 21 0 26 3 16 9 -8
5 -11 16 -8 25 4 10 1 16 -8 16 -9 0 -12 -6 -8 -16z"/>
<path d="M2478 483 c7 -3 16 -2 19 1 4 3 -2 6 -13 5 -11 0 -14 -3 -6 -6z"/>
<path d="M80 466 c-13 -13 -13 -56 0 -56 6 0 10 9 10 20 0 11 7 20 15 20 8 0
15 -9 15 -20 0 -11 5 -20 10 -20 16 0 12 40 -5 46 -8 4 -13 9 -10 13 7 12 -23
9 -35 -3z"/>
<path d="M172 475 c4 -4 0 -13 -9 -20 -25 -19 -9 -47 24 -43 38 4 40 31 6 53
-15 10 -25 14 -21 10z m28 -40 c0 -8 -7 -15 -15 -15 -8 0 -15 7 -15 15 0 8 7
15 15 15 8 0 15 -7 15 -15z"/>
<path d="M245 460 c-24 -27 -13 -52 22 -48 35 4 45 37 14 45 -11 3 -18 9 -15
14 9 16 -2 10 -21 -11z m35 -25 c0 -8 -7 -15 -15 -15 -8 0 -15 7 -15 15 0 8 7
15 15 15 8 0 15 -7 15 -15z"/>
<path d="M320 459 c-16 -29 -5 -49 25 -49 33 0 43 25 20 50 -23 25 -32 25 -45
-1z m40 -24 c0 -8 -7 -15 -15 -15 -8 0 -15 7 -15 15 0 8 7 15 15 15 8 0 15 -7
15 -15z"/>
<path d="M399 458 c-15 -28 -4 -48 26 -48 31 0 45 28 22 45 -9 7 -15 14 -12
17 3 2 -2 5 -11 5 -8 0 -20 -9 -25 -19z m41 -23 c0 -8 -7 -15 -15 -15 -8 0
-15 7 -15 15 0 8 7 15 15 15 8 0 15 -7 15 -15z"/>
<path d="M727 465 c-29 -21 -18 -50 21 -52 28 -1 32 2 32 23 0 29 -16 32 -23
4 -3 -11 -10 -20 -16 -20 -15 0 -14 33 1 48 16 16 7 15 -15 -3z"/>
<path d="M800 465 c-21 -25 -8 -50 28 -52 26 -1 32 2 32 19 0 19 -25 47 -41
48 -4 0 -12 -7 -19 -15z m35 -20 c0 -10 -6 -20 -12 -22 -8 -3 -13 5 -13 22 0
17 5 25 13 23 6 -3 12 -13 12 -23z"/>
<path d="M966 465 c-22 -16 -13 -35 17 -36 21 -1 20 -2 -3 -9 -24 -9 -24 -9 5
-7 23 2 31 7 33 25 2 12 -1 22 -7 22 -6 0 -11 -4 -11 -10 0 -5 -7 -10 -15 -10
-18 0 -19 12 -3 28 16 16 7 15 -16 -3z"/>
<path d="M474 448 c-8 -25 3 -38 31 -38 28 0 39 13 31 38 -4 10 -16 17 -31 17
-15 0 -27 -7 -31 -17z m46 -13 c0 -8 -7 -15 -15 -15 -8 0 -15 7 -15 15 0 8 7
15 15 15 8 0 15 -7 15 -15z"/>
<path d="M876 458 c-13 -29 0 -47 33 -46 25 1 31 5 31 24 0 30 -18 40 -22 12
-5 -32 -26 -33 -30 -1 -4 23 -6 25 -12 11z"/>
<path d="M1040 440 c0 -26 2 -28 23 -21 12 5 22 14 22 21 0 7 -10 16 -22 21
-21 7 -23 5 -23 -21z m30 0 c0 -5 -4 -10 -10 -10 -5 0 -10 5 -10 10 0 6 5 10
10 10 6 0 10 -4 10 -10z"/>
<path d="M1117 463 c-11 -18 0 -33 26 -34 20 -1 20 -2 -3 -9 l-25 -8 28 -1
c30 -1 44 19 32 47 -8 16 -8 16 -12 0 -3 -10 -11 -18 -18 -18 -7 0 -15 8 -17
18 -3 12 -6 14 -11 5z"/>
<path d="M552 437 c3 -33 52 -33 56 1 3 19 -1 22 -27 22 -26 0 -30 -4 -29 -23z
m22 1 c-5 -9 -2 -9 9 1 15 12 17 11 17 -4 0 -10 -6 -15 -17 -13 -19 3 -31 28
-13 28 6 0 8 -5 4 -12z"/>
<path d="M632 438 c2 -18 10 -23 36 -25 28 -1 32 2 32 23 0 29 -16 32 -23 4
-3 -11 -10 -20 -16 -20 -6 0 -11 9 -11 20 0 11 -5 20 -11 20 -6 0 -9 -10 -7
-22z"/>
<path d="M1292 448 c-14 -14 -16 -38 -2 -38 9 0 30 31 30 44 0 10 -15 7 -28
-6z"/>
<path d="M1519 393 c-8 -9 -9 -14 -3 -10 7 4 17 0 23 -7 10 -11 8 -17 -6 -25
-10 -6 -13 -11 -6 -11 14 0 43 39 43 57 0 19 -35 16 -51 -4z m41 -3 c0 -5 -4
-10 -9 -10 -6 0 -13 5 -16 10 -3 6 1 10 9 10 9 0 16 -4 16 -10z"/>
<path d="M1615 400 c-14 -6 -15 -9 -5 -10 10 -1 9 -4 -5 -10 -18 -8 -19 -9 -1
-9 13 -1 16 -6 12 -18 -5 -16 -5 -16 6 -2 7 9 20 18 28 22 12 4 11 6 -2 6 -21
1 -24 17 -5 24 6 3 8 5 2 6 -5 0 -19 -4 -30 -9z"/>
<path d="M1671 394 c0 -11 3 -14 6 -6 3 7 2 16 -1 19 -3 4 -6 -2 -5 -13z"/>
<path d="M1691 394 c0 -11 3 -14 6 -6 3 7 2 16 -1 19 -3 4 -6 -2 -5 -13z"/>
<path d="M1853 403 c9 -2 23 -2 30 0 6 3 -1 5 -18 5 -16 0 -22 -2 -12 -5z"/>
<path d="M1931 374 c1 -21 3 -31 6 -21 3 12 10 16 21 12 13 -5 12 -1 -3 17
-11 13 -21 25 -22 27 -2 2 -2 -13 -2 -35z"/>
<path d="M2005 399 c-17 -6 -17 -8 -2 -8 18 -1 24 -36 7 -44 -6 -3 -5 -4 2 -3
7 1 14 12 16 24 2 11 11 22 20 24 14 3 14 5 -3 9 -11 3 -29 2 -40 -2z"/>
<path d="M2173 403 c16 -3 26 -9 24 -16 -3 -7 -10 -11 -16 -9 -7 1 -10 -2 -7
-7 4 -5 -2 -14 -11 -20 -10 -6 -13 -11 -6 -11 6 0 15 5 18 10 5 8 12 7 23 -2
15 -11 15 -11 4 4 -9 11 -10 18 -2 23 23 14 10 35 -22 34 -32 -2 -32 -2 -5 -6z"/>
<path d="M2245 400 c-17 -7 -16 -8 10 -11 l30 -4 -30 -18 c-16 -10 -22 -16
-12 -13 9 3 17 0 17 -7 0 -8 3 -8 9 2 5 8 14 10 22 6 11 -6 11 -5 2 5 -6 7 -9
18 -7 25 7 16 -16 24 -41 15z"/>
<path d="M2356 387 c-3 -15 -17 -32 -29 -37 -17 -7 -18 -9 -5 -9 20 -1 52 42
46 61 -3 7 -8 0 -12 -15z"/>
<path d="M2430 409 c0 -4 7 -22 15 -40 8 -19 14 -27 14 -19 0 14 -28 72 -29
59z"/>
<path d="M2472 376 c3 -26 7 -31 31 -32 25 -1 25 -1 2 3 -36 6 -34 41 3 45 26
3 26 4 -6 9 -32 5 -33 5 -30 -25z"/>
<path d="M2578 403 c17 -2 32 -8 32 -12 0 -12 -24 -38 -40 -44 -12 -4 -12 -6
2 -6 18 -1 48 34 48 56 0 9 -13 12 -37 11 -37 -1 -37 -1 -5 -5z"/>
<path d="M2725 399 c-16 -6 -17 -8 -3 -8 10 -1 18 -11 21 -28 l4 -28 2 27 c0
16 8 28 19 30 15 3 14 5 -3 9 -11 3 -29 2 -40 -2z"/>
<path d="M1729 380 c-3 -15 -13 -27 -29 -31 -22 -6 -22 -7 -4 -8 26 -1 47 22
42 46 -4 14 -6 12 -9 -7z"/>
<path d="M2093 393 c9 -2 23 -2 30 0 6 3 -1 5 -18 5 -16 0 -22 -2 -12 -5z"/>
<path d="M2639 383 c-11 -15 -11 -16 1 -6 11 10 19 9 39 -10 l26 -22 -24 28
c-14 15 -25 27 -27 27 -1 0 -8 -8 -15 -17z"/>
<path d="M1782 362 c-11 -25 -11 -25 4 -10 9 9 15 21 13 27 -2 6 -10 -2 -17
-17z"/>
<path d="M1843 383 c13 -3 17 -11 14 -24 -3 -10 -1 -17 4 -13 5 3 9 11 9 19 0
7 8 16 18 18 9 3 -1 5 -23 5 -22 0 -32 -2 -22 -5z"/>
<path d="M2396 375 c-3 -9 -6 -22 -5 -28 0 -7 5 -1 10 12 5 13 8 26 5 28 -2 2
-6 -3 -10 -12z"/>
<path d="M2716 363 c-6 -14 -5 -15 5 -6 7 7 10 15 7 18 -3 3 -9 -2 -12 -12z"/>
<path d="M2760 371 c0 -6 4 -13 10 -16 6 -3 7 1 4 9 -7 18 -14 21 -14 7z"/>
<path d="M972 323 c1 -37 1 -37 5 -6 3 19 11 34 21 36 12 3 10 5 -5 6 -20 1
-23 -3 -21 -36z"/>
<path d="M1080 326 c0 -24 -5 -36 -17 -39 -14 -4 -12 -5 5 -6 19 -1 22 4 22
39 0 22 -2 40 -5 40 -3 0 -5 -15 -5 -34z"/>
<path d="M181 334 c0 -11 3 -14 6 -6 3 7 2 16 -1 19 -3 4 -6 -2 -5 -13z"/>
<path d="M414 336 c-8 -8 -7 -15 0 -22 8 -8 15 -7 22 0 8 8 7 15 0 22 -8 8
-15 7 -22 0z"/>
<path d="M517 343 c-10 -9 -9 -23 1 -23 5 0 9 7 9 15 0 17 -1 18 -10 8z"/>
<path d="M573 335 c0 -8 4 -12 9 -9 4 3 8 9 8 15 0 5 -4 9 -8 9 -5 0 -9 -7 -9
-15z"/>
<path d="M647 343 c-10 -9 -9 -23 1 -23 5 0 9 7 9 15 0 17 -1 18 -10 8z"/>
<path d="M677 343 c-10 -9 -9 -23 1 -23 5 0 9 7 9 15 0 17 -1 18 -10 8z"/>
<path d="M723 335 c0 -8 4 -12 9 -9 4 3 8 9 8 15 0 5 -4 9 -8 9 -5 0 -9 -7 -9
-15z"/>
<path d="M753 335 c0 -8 4 -12 9 -9 4 3 8 9 8 15 0 5 -4 9 -8 9 -5 0 -9 -7 -9
-15z"/>
<path d="M800 340 c0 -5 5 -10 10 -10 6 0 10 5 10 10 0 6 -4 10 -10 10 -5 0
-10 -4 -10 -10z"/>
<path d="M830 340 c0 -5 5 -10 10 -10 6 0 10 5 10 10 0 6 -4 10 -10 10 -5 0
-10 -4 -10 -10z"/>
<path d="M2088 343 c12 -2 30 -2 40 0 9 3 -1 5 -23 4 -22 0 -30 -2 -17 -4z"/>
<path d="M70 337 c0 -2 15 -16 33 -33 l32 -29 -29 33 c-28 30 -36 37 -36 29z"/>
<path d="M879 328 c11 -15 11 -21 0 -35 -13 -16 -12 -17 4 -4 14 11 20 11 35
0 15 -13 16 -12 3 4 -11 14 -11 20 0 35 13 15 12 16 -3 3 -15 -11 -21 -11 -35
0 -16 13 -17 12 -4 -3z"/>
<path d="M1125 320 c17 -19 19 -19 37 -4 24 23 24 24 -19 24 -36 0 -36 0 -18
-20z"/>
<path d="M314 318 c-4 -7 -3 -8 5 -4 6 4 19 2 27 -5 12 -9 17 -10 27 0 9 10 8
11 -4 6 -10 -4 -20 -2 -24 4 -8 14 -22 14 -31 -1z"/>
<path d="M1203 313 c9 -2 25 -2 35 0 9 3 1 5 -18 5 -19 0 -27 -2 -17 -5z"/>
<path d="M181 294 c0 -11 3 -14 6 -6 3 7 2 16 -1 19 -3 4 -6 -2 -5 -13z"/>
<path d="M1533 303 c15 -2 27 -8 27 -12 0 -13 -26 -32 -33 -24 -4 3 -7 4 -7 1
0 -3 8 -12 17 -19 9 -8 14 -9 10 -3 -4 7 0 17 8 24 26 22 18 40 -17 39 -31 -2
-31 -2 -5 -6z"/>
<path d="M1591 306 c2 -2 18 -6 34 -10 22 -5 26 -4 15 4 -14 9 -59 15 -49 6z"/>
<path d="M1687 276 l-16 -35 35 2 c24 1 33 6 29 15 -3 8 -5 16 -5 19 0 2 -7
-3 -16 -12 -21 -21 -29 -13 -14 15 6 12 10 24 8 26 -3 2 -12 -12 -21 -30z"/>
<path d="M1800 294 c0 -11 -5 -14 -17 -9 -15 5 -16 4 -5 -7 10 -10 8 -16 -10
-30 l-23 -18 40 1 c33 1 36 2 15 8 -17 5 -21 9 -12 15 6 4 17 4 24 0 7 -5 8
-3 2 7 -5 8 -7 22 -6 32 2 9 1 17 -2 17 -3 0 -6 -7 -6 -16z"/>
<path d="M1846 299 c3 -6 2 -14 -3 -18 -6 -3 -1 -16 12 -30 15 -15 25 -19 29
-12 4 6 0 11 -8 11 -24 0 -19 18 7 23 l22 4 -22 2 c-27 1 -30 18 -5 24 10 3 6
5 -11 6 -18 1 -26 -3 -21 -10z"/>
<path d="M1917 297 c-3 -9 -3 -17 2 -17 4 0 13 -10 19 -22 11 -22 11 -21 6 5
-5 21 -2 27 11 27 10 0 13 -5 9 -12 -4 -7 -3 -8 4 -4 21 13 13 28 -13 24 -13
-3 -26 0 -28 5 -2 6 -6 3 -10 -6z"/>
<path d="M2253 303 c15 -2 27 -8 27 -13 0 -5 -12 -11 -27 -13 l-28 -4 28 -2
c39 -2 33 -17 -10 -24 -43 -7 -53 -3 -53 24 0 12 -7 19 -17 18 -11 0 -13 -3
-5 -6 17 -7 15 -33 -3 -33 -8 0 -15 -4 -15 -9 0 -5 33 -8 73 -8 l72 1 -3 38
c-4 36 -6 38 -36 37 -30 -2 -30 -2 -3 -6z"/>
<path d="M2413 303 c9 -2 23 -2 30 0 6 3 -1 5 -18 5 -16 0 -22 -2 -12 -5z"/>
<path d="M2482 290 c0 -14 2 -19 5 -12 2 6 2 18 0 25 -3 6 -5 1 -5 -13z"/>
<path d="M2521 289 c0 -15 -11 -34 -23 -43 -14 -9 -17 -15 -8 -13 23 3 42 34
37 60 -4 19 -4 19 -6 -4z"/>
<path d="M2591 278 c-1 -26 -6 -38 -16 -38 -11 0 -13 8 -10 33 l5 32 -10 -29
c-12 -36 -6 -46 27 -46 15 0 23 3 20 7 -4 3 -1 13 6 21 8 11 8 14 0 9 -7 -5
-13 2 -16 20 -3 23 -4 21 -6 -9z"/>
<path d="M2639 273 l-5 -43 36 1 c19 1 27 3 17 6 -18 5 -18 5 0 26 18 22 18
22 -3 5 -28 -25 -32 -23 -36 15 -3 30 -4 29 -9 -10z"/>
<path d="M1997 287 c-3 -9 -2 -17 3 -17 6 0 10 -6 10 -14 0 -8 4 -17 9 -20 4
-3 6 6 3 19 -2 15 0 25 7 25 7 0 9 -5 5 -12 -4 -7 -3 -8 4 -4 19 12 14 29 -8
23 -10 -3 -21 0 -23 6 -2 6 -6 3 -10 -6z"/>
<path d="M2093 293 c25 -7 22 -43 -4 -43 -11 0 -17 -4 -14 -10 3 -5 17 -10 30
-10 13 0 27 5 30 10 3 6 1 10 -4 10 -6 0 -11 11 -11 25 0 20 -5 25 -22 24 -17
-1 -19 -2 -5 -6z"/>
<path d="M2710 271 c0 -16 6 -31 15 -35 26 -10 45 5 45 35 0 26 -4 29 -30 29
-26 0 -30 -3 -30 -29z m50 -1 c0 -13 -7 -20 -20 -20 -13 0 -20 7 -20 20 0 13
7 20 20 20 13 0 20 -7 20 -20z"/>
<path d="M413 283 c9 -2 23 -2 30 0 6 3 -1 5 -18 5 -16 0 -22 -2 -12 -5z"/>
<path d="M1610 280 c8 -5 20 -10 25 -10 6 0 3 5 -5 10 -8 5 -19 10 -25 10 -5
0 -3 -5 5 -10z"/>
<path d="M2330 280 l25 -8 -25 -2 -25 -2 25 -8 c24 -8 24 -8 3 -9 -38 -2 -25
-17 15 -18 20 0 31 2 25 4 -7 3 -13 16 -13 29 0 20 -5 24 -27 23 l-28 -1 25
-8z"/>
<path d="M2418 283 c36 -5 43 -22 11 -30 -15 -4 -17 -8 -8 -14 8 -4 18 -1 26
9 22 30 15 42 -24 40 -37 -1 -37 -1 -5 -5z"/>
<path d="M1605 250 c11 -5 27 -9 35 -9 9 0 8 4 -5 9 -11 5 -27 9 -35 9 -9 0
-8 -4 5 -9z"/>
<path d="M76 211 c-4 -5 -2 -12 3 -15 5 -4 12 -2 15 3 4 5 2 12 -3 15 -5 4
-12 2 -15 -3z"/>
<path d="M390 180 c0 -39 1 -40 35 -40 34 0 35 1 35 40 0 39 -1 40 -35 40 -34
0 -35 -1 -35 -40z"/>
<path d="M320 173 c0 -36 0 -36 20 -18 19 17 19 19 4 37 -23 24 -24 24 -24
-19z"/>
<path d="M1511 193 c0 -11 3 -13 6 -5 2 6 16 12 30 12 32 0 28 -29 -7 -47
l-25 -13 28 0 c16 0 26 4 22 9 -3 5 -1 12 5 16 5 3 10 15 10 26 0 15 -7 19
-35 19 -27 0 -35 -4 -34 -17z"/>
<path d="M1620 200 l35 -7 -35 -3 -35 -3 35 -6 35 -6 -25 -17 c-13 -10 -20
-18 -14 -18 16 0 44 34 44 53 0 13 -9 17 -37 16 l-38 -2 35 -7z"/>
<path d="M1729 180 c-3 -15 -13 -27 -29 -31 -22 -6 -22 -7 -4 -8 26 -1 47 22
42 46 -4 14 -6 12 -9 -7z"/>
<path d="M246 161 c-4 -5 -2 -12 3 -15 5 -4 12 -2 15 3 4 5 2 12 -3 15 -5 4
-12 2 -15 -3z"/>
</g>
</svg>
